<svg xmlns="http://www.w3.org/2000/svg" xmlns:xlink="http://www.w3.org/1999/xlink" width="500" zoomAndPan="magnify" viewBox="0 0 375 374.999991" height="500" preserveAspectRatio="xMidYMid meet" version="1.0"><defs><g/><clipPath id="5364ff5efe"><path d="M 157 129 L 228 129 L 228 193.316406 L 157 193.316406 Z M 157 129 " clip-rule="nonzero"/></clipPath><clipPath id="1b91bf2bc1"><path d="M 147 113.816406 L 218 113.816406 L 218 176 L 147 176 Z M 147 113.816406 " clip-rule="nonzero"/></clipPath><clipPath id="f20996b289"><path d="M 181 113.816406 L 261.929688 113.816406 L 261.929688 192 L 181 192 Z M 181 113.816406 " clip-rule="nonzero"/></clipPath><clipPath id="b73c54a5ed"><path d="M 113.429688 115 L 194 115 L 194 193.316406 L 113.429688 193.316406 Z M 113.429688 115 " clip-rule="nonzero"/></clipPath></defs><g clip-path="url(#5364ff5efe)"><path fill="#345db8" d="M 221.542969 187.269531 L 215.859375 187.269531 L 157.308594 129 L 157.308594 137.527344 L 207.292969 187.269531 L 213.351562 193.296875 L 227.601562 193.296875 L 227.601562 166.722656 L 221.542969 160.695312 Z M 221.542969 187.269531 " fill-opacity="1" fill-rule="nonzero"/></g><g clip-path="url(#1b91bf2bc1)"><path fill="#345db8" d="M 153.8125 119.863281 L 162.144531 119.863281 L 217.664062 175.113281 L 217.664062 166.585938 L 170.714844 119.863281 L 164.65625 113.835938 L 147.757812 113.835938 L 147.757812 138.417969 L 153.8125 144.445312 Z M 153.8125 119.863281 " fill-opacity="1" fill-rule="nonzero"/></g><g clip-path="url(#f20996b289)"><path fill="#000000" d="M 251.25 186.195312 C 248.164062 186.195312 245.660156 183.707031 245.660156 180.632812 C 245.660156 179.699219 245.890625 178.816406 246.300781 178.042969 C 247.238281 176.273438 249.101562 175.070312 251.25 175.070312 C 251.386719 175.070312 251.527344 175.074219 251.664062 175.085938 C 254.558594 175.296875 256.839844 177.699219 256.839844 180.632812 C 256.839844 183.707031 254.335938 186.199219 251.25 186.199219 Z M 247.476562 170.6875 L 221.542969 144.878906 L 196.414062 119.863281 L 221.542969 119.863281 L 221.542969 139.582031 L 227.601562 145.605469 L 227.601562 113.835938 L 181.792969 113.835938 L 187.847656 119.863281 L 221.542969 153.402344 L 242.617188 174.375 C 241.332031 176.132812 240.570312 178.292969 240.570312 180.632812 C 240.570312 186.503906 245.351562 191.261719 251.25 191.261719 C 257.148438 191.261719 261.929688 186.503906 261.929688 180.632812 C 261.929688 174.765625 257.148438 170.003906 251.25 170.003906 C 249.921875 170.003906 248.648438 170.246094 247.476562 170.6875 Z M 247.476562 170.6875 " fill-opacity="1" fill-rule="evenodd"/></g><g clip-path="url(#b73c54a5ed)"><path fill="#000000" d="M 124.109375 120.9375 C 127.195312 120.9375 129.699219 123.425781 129.699219 126.5 C 129.699219 127.4375 129.464844 128.316406 129.058594 129.089844 C 128.121094 130.859375 126.257812 132.0625 124.109375 132.0625 C 123.96875 132.0625 123.832031 132.058594 123.695312 132.046875 C 120.800781 131.835938 118.519531 129.433594 118.519531 126.5 C 118.519531 123.425781 121.019531 120.9375 124.109375 120.9375 Z M 127.882812 136.445312 L 153.8125 162.253906 L 178.945312 187.269531 L 153.8125 187.269531 L 153.8125 167.550781 L 147.757812 161.53125 L 147.757812 193.296875 L 193.566406 193.296875 L 187.511719 187.269531 L 153.8125 153.730469 L 132.742188 132.757812 C 134.027344 131.003906 134.789062 128.839844 134.789062 126.5 C 134.789062 120.628906 130.007812 115.871094 124.109375 115.871094 C 118.210938 115.871094 113.429688 120.628906 113.429688 126.5 C 113.429688 132.371094 118.210938 137.128906 124.109375 137.128906 C 125.4375 137.128906 126.707031 136.886719 127.882812 136.445312 Z M 127.882812 136.445312 " fill-opacity="1" fill-rule="evenodd"/></g><g fill="#345db8" fill-opacity="1"><g transform="translate(73.423293, 231.327657)"><g><path d="M 2.5625 0 L 7.386719 0 L 7.386719 -13.09375 L 16.816406 0 L 20.933594 0 L 20.933594 -21.363281 L 16.113281 -21.363281 L 16.113281 -8.363281 L 6.683594 -21.363281 L 2.5625 -21.363281 Z M 2.5625 0 "/></g></g></g><g fill="#345db8" fill-opacity="1"><g transform="translate(96.157348, 231.327657)"><g><path d="M 12.695312 0.425781 C 19.378906 0.425781 24.109375 -4.148438 24.109375 -10.679688 C 24.109375 -17.210938 19.378906 -21.789062 12.695312 -21.789062 C 6.011719 -21.789062 1.3125 -17.210938 1.3125 -10.679688 C 1.3125 -4.148438 6.011719 0.425781 12.695312 0.425781 Z M 6.257812 -10.679688 C 6.257812 -14.527344 8.910156 -17.179688 12.695312 -17.179688 C 16.511719 -17.179688 19.132812 -14.527344 19.132812 -10.679688 C 19.132812 -6.835938 16.511719 -4.179688 12.695312 -4.179688 C 8.910156 -4.179688 6.257812 -6.835938 6.257812 -10.679688 Z M 6.257812 -10.679688 "/></g></g></g><g fill="#345db8" fill-opacity="1"><g transform="translate(120.813894, 231.327657)"><g><path d="M 2.5625 0 L 11.015625 0 C 17.761719 0 22.277344 -4.304688 22.277344 -10.679688 C 22.277344 -17.027344 17.761719 -21.363281 11.015625 -21.363281 L 2.5625 -21.363281 Z M 7.414062 -4.457031 L 7.414062 -16.90625 L 10.863281 -16.90625 C 14.710938 -16.90625 17.304688 -14.433594 17.304688 -10.679688 C 17.304688 -6.925781 14.710938 -4.457031 10.925781 -4.457031 Z M 7.414062 -4.457031 "/></g></g></g><g fill="#345db8" fill-opacity="1"><g transform="translate(143.608979, 231.327657)"><g><path d="M 2.5625 0 L 16.9375 0 L 16.9375 -4.121094 L 7.386719 -4.121094 L 7.386719 -8.789062 L 15.777344 -8.789062 L 15.777344 -12.847656 L 7.386719 -12.847656 L 7.386719 -17.273438 L 16.601562 -17.273438 L 16.601562 -21.363281 L 2.5625 -21.363281 Z M 2.5625 0 "/></g></g></g><g fill="#345db8" fill-opacity="1"><g transform="translate(161.338462, 231.327657)"><g><path d="M 7.691406 0 L 12.542969 0 L 12.542969 -16.816406 L 19.316406 -16.816406 L 19.316406 -21.363281 L 0.914062 -21.363281 L 0.914062 -16.816406 L 7.691406 -16.816406 Z M 7.691406 0 "/></g></g></g><g fill="#345db8" fill-opacity="1"><g transform="translate(180.807344, 231.327657)"><g><path d="M 2.5625 0 L 7.414062 0 L 7.414062 -6.652344 L 10.621094 -6.652344 L 14.433594 0 L 20.050781 0 L 15.625 -7.414062 C 18.1875 -8.542969 19.683594 -10.863281 19.683594 -14.007812 C 19.683594 -18.554688 16.570312 -21.363281 11.6875 -21.363281 L 2.5625 -21.363281 Z M 7.355469 -10.742188 L 7.355469 -17.210938 L 11.046875 -17.210938 C 13.425781 -17.210938 14.769531 -16.050781 14.769531 -13.976562 C 14.769531 -11.902344 13.425781 -10.742188 11.046875 -10.742188 Z M 7.355469 -10.742188 "/></g></g></g><g fill="#345db8" fill-opacity="1"><g transform="translate(201.527363, 231.327657)"><g><path d="M 12.695312 0.425781 C 19.378906 0.425781 24.109375 -4.148438 24.109375 -10.679688 C 24.109375 -17.210938 19.378906 -21.789062 12.695312 -21.789062 C 6.011719 -21.789062 1.3125 -17.210938 1.3125 -10.679688 C 1.3125 -4.148438 6.011719 0.425781 12.695312 0.425781 Z M 6.257812 -10.679688 C 6.257812 -14.527344 8.910156 -17.179688 12.695312 -17.179688 C 16.511719 -17.179688 19.132812 -14.527344 19.132812 -10.679688 C 19.132812 -6.835938 16.511719 -4.179688 12.695312 -4.179688 C 8.910156 -4.179688 6.257812 -6.835938 6.257812 -10.679688 Z M 6.257812 -10.679688 "/></g></g></g><g fill="#345db8" fill-opacity="1"><g transform="translate(226.183909, 231.327657)"><g><path d="M 2.5625 0 L 7.386719 0 L 7.386719 -13.09375 L 16.816406 0 L 20.933594 0 L 20.933594 -21.363281 L 16.113281 -21.363281 L 16.113281 -8.363281 L 6.683594 -21.363281 L 2.5625 -21.363281 Z M 2.5625 0 "/></g></g></g><g fill="#345db8" fill-opacity="1"><g transform="translate(248.917963, 231.327657)"><g><path d="M 2.5625 0 L 7.414062 0 L 7.414062 -21.363281 L 2.5625 -21.363281 Z M 2.5625 0 "/></g></g></g><g fill="#345db8" fill-opacity="1"><g transform="translate(258.13358, 231.327657)"><g><path d="M 12.359375 0.425781 C 17.976562 0.425781 22.339844 -2.992188 23.40625 -8.179688 L 18.402344 -8.179688 C 17.515625 -5.738281 15.257812 -4.179688 12.449219 -4.179688 C 8.820312 -4.179688 6.257812 -6.835938 6.257812 -10.679688 C 6.257812 -14.527344 8.851562 -17.179688 12.480469 -17.179688 C 15.199219 -17.179688 17.425781 -15.714844 18.25 -13.367188 L 23.253906 -13.367188 C 22.035156 -18.492188 17.761719 -21.789062 12.328125 -21.789062 C 5.859375 -21.789062 1.3125 -17.210938 1.3125 -10.679688 C 1.3125 -4.148438 5.859375 0.425781 12.359375 0.425781 Z M 12.359375 0.425781 "/></g></g></g><g fill="#345db8" fill-opacity="1"><g transform="translate(281.99673, 231.327657)"><g><path d="M 10.007812 0.425781 C 15.074219 0.425781 18.1875 -1.984375 18.1875 -6.011719 C 18.1875 -9.398438 15.960938 -11.414062 10.652344 -12.664062 C 7.386719 -13.425781 6.257812 -14.25 6.257812 -15.5625 C 6.257812 -16.96875 7.507812 -17.820312 9.550781 -17.820312 C 11.78125 -17.820312 13.121094 -16.664062 13.121094 -14.738281 L 17.792969 -14.738281 C 17.792969 -19.042969 14.558594 -21.789062 9.492188 -21.789062 C 4.578125 -21.789062 1.527344 -19.378906 1.527344 -15.472656 C 1.527344 -11.992188 3.875 -9.917969 8.878906 -8.851562 C 11.902344 -8.210938 13.273438 -7.324219 13.273438 -5.828125 C 13.273438 -4.394531 11.992188 -3.570312 9.980469 -3.570312 C 7.628906 -3.570312 6.101562 -4.761719 6.101562 -6.804688 L 1.34375 -6.804688 C 1.34375 -2.378906 4.636719 0.425781 10.007812 0.425781 Z M 10.007812 0.425781 "/></g></g></g><g fill="#000000" fill-opacity="1"><g transform="translate(131.547095, 257.239495)"><g><path d="M 3.742188 0 L 6.105469 0 L 6.105469 -8.1875 L 9.40625 -8.1875 L 9.40625 -10.398438 L 0.445312 -10.398438 L 0.445312 -8.1875 L 3.742188 -8.1875 Z M 3.742188 0 "/></g></g></g><g fill="#000000" fill-opacity="1"><g transform="translate(141.688323, 257.239495)"><g><path d="M 1.246094 0 L 8.246094 0 L 8.246094 -2.003906 L 3.59375 -2.003906 L 3.59375 -4.277344 L 7.679688 -4.277344 L 7.679688 -6.253906 L 3.59375 -6.253906 L 3.59375 -8.410156 L 8.082031 -8.410156 L 8.082031 -10.398438 L 1.246094 -10.398438 Z M 1.246094 0 "/></g></g></g><g fill="#000000" fill-opacity="1"><g transform="translate(150.983238, 257.239495)"><g><path d="M 6.015625 0.207031 C 8.75 0.207031 10.875 -1.457031 11.394531 -3.980469 L 8.960938 -3.980469 C 8.527344 -2.792969 7.429688 -2.035156 6.0625 -2.035156 C 4.292969 -2.035156 3.046875 -3.328125 3.046875 -5.199219 C 3.046875 -7.070312 4.308594 -8.363281 6.078125 -8.363281 C 7.398438 -8.363281 8.484375 -7.652344 8.886719 -6.507812 L 11.320312 -6.507812 C 10.726562 -9.003906 8.648438 -10.609375 6.003906 -10.609375 C 2.851562 -10.609375 0.640625 -8.378906 0.640625 -5.199219 C 0.640625 -2.019531 2.851562 0.207031 6.015625 0.207031 Z M 6.015625 0.207031 "/></g></g></g><g fill="#000000" fill-opacity="1"><g transform="translate(163.262533, 257.239495)"><g><path d="M 7.679688 0 L 10.042969 0 L 10.042969 -10.398438 L 7.679688 -10.398438 L 7.679688 -6.402344 L 3.609375 -6.402344 L 3.609375 -10.398438 L 1.246094 -10.398438 L 1.246094 0 L 3.609375 0 L 3.609375 -4.191406 L 7.679688 -4.191406 Z M 7.679688 0 "/></g></g></g><g fill="#000000" fill-opacity="1"><g transform="translate(174.843988, 257.239495)"><g><path d="M 1.246094 0 L 3.59375 0 L 3.59375 -6.375 L 8.1875 0 L 10.191406 0 L 10.191406 -10.398438 L 7.84375 -10.398438 L 7.84375 -4.070312 L 3.253906 -10.398438 L 1.246094 -10.398438 Z M 1.246094 0 "/></g></g></g><g fill="#000000" fill-opacity="1"><g transform="translate(186.573918, 257.239495)"><g><path d="M 6.179688 0.207031 C 9.433594 0.207031 11.738281 -2.019531 11.738281 -5.199219 C 11.738281 -8.378906 9.433594 -10.609375 6.179688 -10.609375 C 2.925781 -10.609375 0.640625 -8.378906 0.640625 -5.199219 C 0.640625 -2.019531 2.925781 0.207031 6.179688 0.207031 Z M 3.046875 -5.199219 C 3.046875 -7.070312 4.339844 -8.363281 6.179688 -8.363281 C 8.039062 -8.363281 9.316406 -7.070312 9.316406 -5.199219 C 9.316406 -3.328125 8.039062 -2.035156 6.179688 -2.035156 C 4.339844 -2.035156 3.046875 -3.328125 3.046875 -5.199219 Z M 3.046875 -5.199219 "/></g></g></g><g fill="#000000" fill-opacity="1"><g transform="translate(199.239242, 257.239495)"><g><path d="M 1.246094 0 L 8.15625 0 L 8.15625 -2.214844 L 3.609375 -2.214844 L 3.609375 -10.398438 L 1.246094 -10.398438 Z M 1.246094 0 "/></g></g></g><g fill="#000000" fill-opacity="1"><g transform="translate(208.088729, 257.239495)"><g><path d="M 6.179688 0.207031 C 9.433594 0.207031 11.738281 -2.019531 11.738281 -5.199219 C 11.738281 -8.378906 9.433594 -10.609375 6.179688 -10.609375 C 2.925781 -10.609375 0.640625 -8.378906 0.640625 -5.199219 C 0.640625 -2.019531 2.925781 0.207031 6.179688 0.207031 Z M 3.046875 -5.199219 C 3.046875 -7.070312 4.339844 -8.363281 6.179688 -8.363281 C 8.039062 -8.363281 9.316406 -7.070312 9.316406 -5.199219 C 9.316406 -3.328125 8.039062 -2.035156 6.179688 -2.035156 C 4.339844 -2.035156 3.046875 -3.328125 3.046875 -5.199219 Z M 3.046875 -5.199219 "/></g></g></g><g fill="#000000" fill-opacity="1"><g transform="translate(220.754053, 257.239495)"><g><path d="M 6.089844 0.207031 C 9.523438 0.207031 11.738281 -2.332031 11.5 -5.898438 L 5.632812 -5.898438 L 5.632812 -4.070312 L 9.003906 -4.070312 C 8.707031 -2.808594 7.636719 -1.960938 6.121094 -1.960938 C 4.21875 -1.960938 3 -3.328125 3 -5.199219 C 3 -7.101562 4.265625 -8.4375 6.089844 -8.4375 C 7.25 -8.4375 8.214844 -7.902344 8.722656 -6.996094 L 11.261719 -6.996094 C 10.636719 -9.183594 8.574219 -10.609375 6.046875 -10.609375 C 2.882812 -10.609375 0.640625 -8.363281 0.640625 -5.199219 C 0.640625 -2.019531 2.898438 0.207031 6.089844 0.207031 Z M 6.089844 0.207031 "/></g></g></g><g fill="#000000" fill-opacity="1"><g transform="translate(233.166984, 257.239495)"><g><path d="M 3.96875 0 L 6.328125 0 L 6.328125 -3.667969 L 10.148438 -10.398438 L 7.457031 -10.398438 L 6.179688 -7.992188 L 5.15625 -6.105469 L 4.117188 -7.992188 L 2.824219 -10.398438 L 0.132812 -10.398438 L 3.96875 -3.640625 Z M 3.96875 0 "/></g></g></g></svg>